{
  "asset": {
    "version": "2.0",
    "generator": "LEGO Real 3D GLTF Generator"
  },
  "scenes": [
    {
      "nodes": [
        0
      ]
    }
  ],
  "nodes": [
    {
      "mesh": 0
    }
  ],
  "meshes": [
    {
      "primitives": [
        {
          "attributes": {
            "POSITION": 0,
            "NORMAL": 1
          },
          "indices": 2,
          "material": 0
        }
      ]
    }
  ],
  "materials": [
    {
      "pbrMetallicRoughness": {
        "baseColorFactor": [
          0.63,
          0.65,
          0.66,
          1
        ],
        "metallicFactor": 0.2,
        "roughnessFactor": 0.4
      }
    }
  ],
  "accessors": [
    {
      "bufferView": 0,
      "componentType": 5126,
      "count": 148,
      "type": "VEC3",
      "max": [
        3.799999952316284,
        3.9000000953674316,
        3.799999952316284
      ],
      "min": [
        -3.799999952316284,
        -3.9000000953674316,
        -3.799999952316284
      ]
    },
    {
      "bufferView": 1,
      "componentType": 5126,
      "count": 148,
      "type": "VEC3"
    },
    {
      "bufferView": 2,
      "componentType": 5123,
      "count": 288,
      "type": "SCALAR"
    }
  ],
  "bufferViews": [
    {
      "buffer": 0,
      "byteOffset": 0,
      "byteLength": 1776,
      "target": 34962
    },
    {
      "buffer": 0,
      "byteOffset": 1776,
      "byteLength": 1776,
      "target": 34962
    },
    {
      "buffer": 0,
      "byteOffset": 3552,
      "byteLength": 576,
      "target": 34963
    }
  ],
  "buffers": [
    {
      "uri": "data:application/octet-stream;base64,",
      "byteLength": 4128
    }
  ]
}